<svg width="25" height="25" viewBox="0 0 25 25" fill="none" xmlns="http://www.w3.org/2000/svg">
<path d="M21.3333 7.78V5.5C21.3333 4.4 20.4333 3.5 19.3333 3.5H5.33331C4.22331 3.5 3.33331 4.4 3.33331 5.5V19.5C3.33331 20.6 4.22331 21.5 5.33331 21.5H19.3333C20.4333 21.5 21.3333 20.6 21.3333 19.5V17.22C21.9233 16.87 22.3333 16.24 22.3333 15.5V9.5C22.3333 8.76 21.9233 8.13 21.3333 7.78ZM20.3333 9.5V15.5H13.3333V9.5H20.3333ZM5.33331 19.5V5.5H19.3333V7.5H13.3333C12.2333 7.5 11.3333 8.4 11.3333 9.5V15.5C11.3333 16.6 12.2333 17.5 13.3333 17.5H19.3333V19.5H5.33331Z" fill="#323232"/>
<path d="M16.3333 14C17.1617 14 17.8333 13.3284 17.8333 12.5C17.8333 11.6716 17.1617 11 16.3333 11C15.5049 11 14.8333 11.6716 14.8333 12.5C14.8333 13.3284 15.5049 14 16.3333 14Z" fill="#323232"/>
</svg>
