<svg width="25" height="25" viewBox="0 0 25 25" fill="none" xmlns="http://www.w3.org/2000/svg">
<path d="M6.87331 5.5C6.93331 6.39 7.08331 7.26 7.32331 8.09L6.12331 9.29C5.71331 8.09 5.45331 6.82 5.36331 5.5H6.87331ZM16.7333 17.52C17.5833 17.76 18.4533 17.91 19.3333 17.97V19.46C18.0133 19.37 16.7433 19.11 15.5333 18.71L16.7333 17.52ZM7.83331 3.5H4.33331C3.78331 3.5 3.33331 3.95 3.33331 4.5C3.33331 13.89 10.9433 21.5 20.3333 21.5C20.8833 21.5 21.3333 21.05 21.3333 20.5V17.01C21.3333 16.46 20.8833 16.01 20.3333 16.01C19.0933 16.01 17.8833 15.81 16.7633 15.44C16.6633 15.4 16.5533 15.39 16.4533 15.39C16.1933 15.39 15.9433 15.49 15.7433 15.68L13.5433 17.88C10.7133 16.43 8.39331 14.12 6.95331 11.29L9.15331 9.09C9.43331 8.81 9.51331 8.42 9.40331 8.07C9.03331 6.95 8.83331 5.75 8.83331 4.5C8.83331 3.95 8.38331 3.5 7.83331 3.5Z" fill="#333333"/>
</svg>
