<svg width="25" height="25" viewBox="0 0 25 25" fill="none" xmlns="http://www.w3.org/2000/svg">
<path d="M20.3333 6.5H18.1533C18.2633 6.19 18.3333 5.85 18.3333 5.5C18.3333 3.84 16.9933 2.5 15.3333 2.5C14.2833 2.5 13.3733 3.04 12.8333 3.85L12.3333 4.52L11.8333 3.84C11.2933 3.04 10.3833 2.5 9.33331 2.5C7.67331 2.5 6.33331 3.84 6.33331 5.5C6.33331 5.85 6.40331 6.19 6.51331 6.5H4.33331C3.22331 6.5 2.34331 7.39 2.34331 8.5L2.33331 19.5C2.33331 20.61 3.22331 21.5 4.33331 21.5H20.3333C21.4433 21.5 22.3333 20.61 22.3333 19.5V8.5C22.3333 7.39 21.4433 6.5 20.3333 6.5ZM15.3333 4.5C15.8833 4.5 16.3333 4.95 16.3333 5.5C16.3333 6.05 15.8833 6.5 15.3333 6.5C14.7833 6.5 14.3333 6.05 14.3333 5.5C14.3333 4.95 14.7833 4.5 15.3333 4.5ZM9.33331 4.5C9.88331 4.5 10.3333 4.95 10.3333 5.5C10.3333 6.05 9.88331 6.5 9.33331 6.5C8.78331 6.5 8.33331 6.05 8.33331 5.5C8.33331 4.95 8.78331 4.5 9.33331 4.5ZM20.3333 19.5H4.33331V17.5H20.3333V19.5ZM20.3333 14.5H4.33331V8.5H9.41331L7.33331 11.33L8.95331 12.5L12.3333 7.9L15.7133 12.5L17.3333 11.33L15.2533 8.5H20.3333V14.5Z" fill="#323232"/>
</svg>
