<svg width="25" height="25" viewBox="0 0 25 25" fill="none" xmlns="http://www.w3.org/2000/svg">
<path d="M11.3333 12.5C13.5433 12.5 15.3333 10.71 15.3333 8.5C15.3333 6.29 13.5433 4.5 11.3333 4.5C9.12331 4.5 7.33331 6.29 7.33331 8.5C7.33331 10.71 9.12331 12.5 11.3333 12.5ZM11.3333 6.5C12.4333 6.5 13.3333 7.4 13.3333 8.5C13.3333 9.6 12.4333 10.5 11.3333 10.5C10.2333 10.5 9.33331 9.6 9.33331 8.5C9.33331 7.4 10.2333 6.5 11.3333 6.5ZM5.33331 18.5C5.53331 17.87 7.90331 16.82 10.2933 16.56L12.3333 14.56C11.9433 14.52 11.6533 14.5 11.3333 14.5C8.66331 14.5 3.33331 15.84 3.33331 18.5V20.5H12.3333L10.3333 18.5H5.33331ZM20.9333 13L15.8033 18.17L13.7333 16.09L12.3333 17.5L15.8033 21L22.3333 14.41L20.9333 13Z" fill="#333333"/>
</svg>
