<svg width="19" height="18" viewBox="0 0 19 18" fill="none" xmlns="http://www.w3.org/2000/svg">
<path d="M14.9166 3.75V14.25H4.41663V3.75H14.9166ZM15.7416 2.25H3.59163C3.21663 2.25 2.91663 2.55 2.91663 2.925V15.075C2.91663 15.375 3.21663 15.75 3.59163 15.75H15.7416C16.0416 15.75 16.4166 15.375 16.4166 15.075V2.925C16.4166 2.55 16.0416 2.25 15.7416 2.25ZM8.91663 5.25H13.4166V6.75H8.91663V5.25ZM8.91663 8.25H13.4166V9.75H8.91663V8.25ZM8.91663 11.25H13.4166V12.75H8.91663V11.25ZM5.91663 5.25H7.41663V6.75H5.91663V5.25ZM5.91663 8.25H7.41663V9.75H5.91663V8.25ZM5.91663 11.25H7.41663V12.75H5.91663V11.25Z" fill="#FFD50B"/>
</svg>
