<svg width="25" height="25" viewBox="0 0 25 25" fill="none" xmlns="http://www.w3.org/2000/svg">
<path d="M12.3333 2.5C8.46331 2.5 5.33331 5.63 5.33331 9.5C5.33331 14.75 12.3333 22.5 12.3333 22.5C12.3333 22.5 19.3333 14.75 19.3333 9.5C19.3333 5.63 16.2033 2.5 12.3333 2.5ZM7.33331 9.5C7.33331 6.74 9.57331 4.5 12.3333 4.5C15.0933 4.5 17.3333 6.74 17.3333 9.5C17.3333 12.38 14.4533 16.69 12.3333 19.38C10.2533 16.71 7.33331 12.35 7.33331 9.5Z" fill="#333333"/>
<path d="M12.3333 12C13.714 12 14.8333 10.8807 14.8333 9.5C14.8333 8.11929 13.714 7 12.3333 7C10.9526 7 9.83331 8.11929 9.83331 9.5C9.83331 10.8807 10.9526 12 12.3333 12Z" fill="#333333"/>
</svg>
