<svg width="23" height="20" viewBox="0 0 23 20" fill="none" xmlns="http://www.w3.org/2000/svg">
<path d="M1.58113 8.70867C7.75513 6.08704 11.8721 4.3587 13.932 3.52365C19.8136 1.13941 21.0357 0.725248 21.8323 0.711572C22.0075 0.708564 22.3992 0.750881 22.6529 0.951551C22.8672 1.12099 22.9262 1.34989 22.9544 1.51054C22.9826 1.67119 23.0177 2.03715 22.9898 2.3231C22.6711 5.58694 21.2919 13.5074 20.5903 17.163C20.2935 18.7098 19.7089 19.2284 19.143 19.2791C17.9131 19.3894 16.9792 18.487 15.788 17.726C13.924 16.5351 12.8709 15.7938 11.0616 14.6317C8.97061 13.2888 10.3261 12.5507 11.5178 11.3444C11.8296 11.0287 17.2485 6.22491 17.3534 5.78913C17.3665 5.73463 17.3787 5.53148 17.2549 5.4242C17.131 5.31693 16.9483 5.35361 16.8164 5.38279C16.6294 5.42414 13.6517 7.34237 7.88309 11.1375C7.03787 11.7031 6.27229 11.9787 5.58635 11.9643C4.83017 11.9484 3.37557 11.5476 2.29422 11.205C0.967909 10.7848 -0.0862189 10.5627 0.00557197 9.84906C0.0533823 9.47736 0.578568 9.09724 1.58113 8.70867Z" fill="#979797"/>
</svg>
