<svg width="23" height="19" viewBox="0 0 23 19" fill="none" xmlns="http://www.w3.org/2000/svg">
<path d="M1.58113 8.20916C7.75513 5.58753 11.8721 3.85919 13.932 3.02414C19.8136 0.639903 21.0357 0.225736 21.8323 0.21206C22.0075 0.209052 22.3992 0.251369 22.6529 0.45204C22.8672 0.621482 22.9262 0.850374 22.9544 1.01102C22.9826 1.17167 23.0177 1.53764 22.9898 1.82359C22.6711 5.08743 21.2919 13.0079 20.5903 16.6634C20.2935 18.2102 19.7089 18.7289 19.143 18.7796C17.9131 18.8899 16.9792 17.9875 15.788 17.2264C13.924 16.0356 12.8709 15.2943 11.0616 14.1322C8.97061 12.7893 10.3261 12.0512 11.5178 10.8449C11.8296 10.5292 17.2485 5.7254 17.3534 5.28962C17.3665 5.23512 17.3787 5.03196 17.2549 4.92469C17.131 4.81742 16.9483 4.8541 16.8164 4.88328C16.6294 4.92463 13.6517 6.84286 7.88309 10.638C7.03787 11.2036 6.27229 11.4792 5.58635 11.4648C4.83017 11.4489 3.37557 11.0481 2.29422 10.7055C0.967909 10.2853 -0.0862189 10.0632 0.00557197 9.34954C0.0533823 8.97785 0.578568 8.59772 1.58113 8.20916Z" fill="#333333"/>
</svg>
