<svg width="29" height="31" viewBox="0 0 29 31" fill="none" xmlns="http://www.w3.org/2000/svg">
<g clip-path="url(#clip0_60_826)">
<path d="M25.366 3.61627C24.6293 2.95716 21.6827 0.785955 15.0528 0.747184C15.0528 0.747184 7.2597 0.281921 3.4601 3.77136C1.32767 5.90379 0.591006 8.96674 0.513463 12.8051C0.43592 16.6435 0.319616 23.8162 7.25971 25.7936V28.779C7.25971 28.779 7.22094 29.9809 7.99637 30.2135C8.96566 30.5237 9.50845 29.5932 10.439 28.6239C10.943 28.0811 11.6409 27.3056 12.1449 26.6853C16.875 27.073 20.5196 26.1813 20.946 26.0262C21.9153 25.716 27.3046 25.0181 28.1963 17.8454C29.1268 10.4013 27.8086 5.70993 25.366 3.61627ZM26.1802 17.2638C25.4435 23.2734 21.0624 23.6611 20.2482 23.8938C19.8992 24.0101 16.72 24.7855 12.6877 24.5529C12.6877 24.5529 9.70231 28.1586 8.73302 29.1279C8.57794 29.283 8.42285 29.3218 8.30654 29.3218C8.15145 29.283 8.11268 29.0891 8.11268 28.8177C8.11268 28.43 8.15145 23.855 8.15145 23.855C2.29696 22.2266 2.6459 16.1007 2.68467 12.8827C2.76221 9.66462 3.34379 7.06693 5.12728 5.28344C8.34531 2.37558 14.9752 2.80207 14.9752 2.80207C20.5583 2.84084 23.2336 4.50801 23.8539 5.08958C25.87 6.87307 26.9169 11.0992 26.1802 17.2638Z" fill="#333333"/>
<path d="M17.7668 12.6506C17.6893 11.1772 16.9526 10.4018 15.518 10.3242" stroke="#333333" stroke-width="1.92693" stroke-linecap="round" stroke-linejoin="round"/>
<path d="M19.7055 13.2706C19.7443 11.9135 19.3178 10.7503 18.5036 9.85854C17.6506 8.92799 16.4874 8.42394 15.014 8.30762" stroke="#333333" stroke-width="1.92693" stroke-linecap="round" stroke-linejoin="round"/>
<path d="M21.6442 14.0465C21.6442 11.6813 20.9075 9.82022 19.5117 8.46317C18.1158 7.10611 16.3711 6.4082 14.2773 6.4082" stroke="#333333" stroke-width="1.92693" stroke-linecap="round" stroke-linejoin="round"/>
<path d="M15.5956 17.6518C15.5956 17.6518 16.1384 17.6906 16.4098 17.3417L16.9526 16.6438C17.224 16.2948 17.8443 16.0622 18.5034 16.4111C18.8524 16.605 19.4727 16.9927 19.8604 17.3029C20.2869 17.6131 21.1399 18.3109 21.1399 18.3109C21.5664 18.6599 21.6439 19.1639 21.3725 19.7067C21.1011 20.2107 20.7134 20.676 20.2094 21.1025C19.8217 21.4514 19.4339 21.6065 19.0462 21.6841H18.8911C18.7361 21.6841 18.5422 21.6453 18.3871 21.6065C17.8055 21.4514 16.8363 21.025 15.1691 20.1332C14.1223 19.5516 13.2305 18.9313 12.4939 18.3497C12.1061 18.0395 11.6796 17.6906 11.2919 17.2641L11.1368 17.109C10.7104 16.6825 10.3614 16.2948 10.0512 15.9071C9.46967 15.1705 8.84932 14.2787 8.26775 13.2319C7.376 11.6035 6.94952 10.6342 6.79444 10.0138C6.75566 9.85876 6.71689 9.70368 6.71689 9.50982V9.35472C6.75566 8.96701 6.94952 8.57929 7.29846 8.19158C7.72495 7.72632 8.19021 7.33861 8.69424 7.02843C9.23704 6.75703 9.74107 6.83458 10.09 7.26106C10.09 7.26106 10.7879 8.11404 11.0981 8.54053C11.3695 8.92825 11.7572 9.54859 11.9898 9.89753C12.3388 10.5179 12.1061 11.177 11.796 11.4484L11.0981 11.9912C10.7491 12.2626 10.7879 12.8054 10.7879 12.8054C10.7879 12.8054 11.7572 16.6438 15.5956 17.6518Z" fill="#333333"/>
</g>
<defs>
<clipPath id="clip0_60_826">
<rect width="28" height="29.5477" fill="white" transform="translate(0.5 0.726562)"/>
</clipPath>
</defs>
</svg>
