<svg width="29" height="30" viewBox="0 0 29 30" fill="none" xmlns="http://www.w3.org/2000/svg">
<g clip-path="url(#clip0_657_2426)">
<path d="M25.366 3.11578C24.6293 2.45667 21.6827 0.285467 15.0528 0.246696C15.0528 0.246696 7.2597 -0.218567 3.4601 3.27087C1.32767 5.4033 0.591006 8.46625 0.513463 12.3046C0.43592 16.143 0.319616 23.3157 7.25971 25.2931V28.2785C7.25971 28.2785 7.22094 29.4804 7.99637 29.713C8.96566 30.0232 9.50845 29.0927 10.439 28.1234C10.943 27.5806 11.6409 26.8052 12.1449 26.1848C16.875 26.5725 20.5196 25.6808 20.946 25.5257C21.9153 25.2155 27.3046 24.5176 28.1963 17.3449C29.1268 9.9008 27.8086 5.20944 25.366 3.11578ZM26.1802 16.7634C25.4435 22.7729 21.0624 23.1606 20.2482 23.3933C19.8992 23.5096 16.72 24.285 12.6877 24.0524C12.6877 24.0524 9.70231 27.6581 8.73302 28.6274C8.57794 28.7825 8.42285 28.8213 8.30654 28.8213C8.15145 28.7825 8.11268 28.5886 8.11268 28.3172C8.11268 27.9295 8.15145 23.3545 8.15145 23.3545C2.29696 21.7261 2.6459 15.6002 2.68467 12.3822C2.76221 9.16413 3.34379 6.56644 5.12728 4.78295C8.34531 1.87509 14.9752 2.30158 14.9752 2.30158C20.5583 2.34035 23.2336 4.00752 23.8539 4.5891C25.87 6.37258 26.9169 10.5987 26.1802 16.7634Z" fill="#979797"/>
<path d="M17.7668 12.1496C17.6893 10.6762 16.9526 9.90079 15.518 9.82324" stroke="#979797" stroke-width="1.92693" stroke-linecap="round" stroke-linejoin="round"/>
<path d="M19.7055 12.7701C19.7443 11.413 19.3178 10.2498 18.5036 9.35805C17.6506 8.4275 16.4874 7.92345 15.014 7.80713" stroke="#979797" stroke-width="1.92693" stroke-linecap="round" stroke-linejoin="round"/>
<path d="M21.6442 13.5455C21.6442 11.1803 20.9075 9.31925 19.5117 7.96219C18.1158 6.60514 16.3711 5.90723 14.2773 5.90723" stroke="#979797" stroke-width="1.92693" stroke-linecap="round" stroke-linejoin="round"/>
<path d="M15.5956 17.1511C15.5956 17.1511 16.1384 17.1899 16.4098 16.8409L16.9526 16.143C17.224 15.7941 17.8443 15.5615 18.5034 15.9104C18.8524 16.1043 19.4727 16.492 19.8604 16.8021C20.2869 17.1123 21.1399 17.8102 21.1399 17.8102C21.5664 18.1592 21.6439 18.6632 21.3725 19.206C21.1011 19.71 20.7134 20.1753 20.2094 20.6018C19.8217 20.9507 19.4339 21.1058 19.0462 21.1833H18.8911C18.7361 21.1833 18.5422 21.1446 18.3871 21.1058C17.8055 20.9507 16.8363 20.5242 15.1691 19.6325C14.1223 19.0509 13.2305 18.4306 12.4939 17.849C12.1061 17.5388 11.6796 17.1899 11.2919 16.7634L11.1368 16.6083C10.7104 16.1818 10.3614 15.7941 10.0512 15.4064C9.46967 14.6697 8.84932 13.778 8.26775 12.7311C7.376 11.1027 6.94952 10.1335 6.79444 9.51311C6.75566 9.35802 6.71689 9.20294 6.71689 9.00909V8.85399C6.75566 8.46628 6.94952 8.07856 7.29846 7.69085C7.72495 7.22559 8.19021 6.83787 8.69424 6.5277C9.23704 6.2563 9.74107 6.33385 10.09 6.76033C10.09 6.76033 10.7879 7.61331 11.0981 8.0398C11.3695 8.42751 11.7572 9.04786 11.9898 9.3968C12.3388 10.0171 12.1061 10.6763 11.796 10.9477L11.0981 11.4905C10.7491 11.7619 10.7879 12.3047 10.7879 12.3047C10.7879 12.3047 11.7572 16.143 15.5956 17.1511Z" fill="#979797"/>
</g>
<defs>
<clipPath id="clip0_657_2426">
<rect width="28" height="29.5477" fill="white" transform="translate(0.5 0.226074)"/>
</clipPath>
</defs>
</svg>
