<svg width="29" height="29" viewBox="0 0 29 29" fill="none" xmlns="http://www.w3.org/2000/svg">
<path fill-rule="evenodd" clip-rule="evenodd" d="M2.47785 21.3104L0.5 28.5L7.8908 26.571C9.93486 27.6792 12.2252 28.2598 14.5527 28.26H14.5588C22.2421 28.26 28.4967 22.0348 28.5 14.3851C28.5015 10.7031 27.0333 7.17134 24.4186 4.56722C21.8039 1.9631 18.257 0.500017 14.5585 0.5C6.87364 0.5 0.620119 6.72386 0.617044 14.3739C0.614054 16.8087 1.25589 19.2013 2.47785 21.3104ZM8.65649 24.309L8.23317 24.0592L3.84754 25.2039L5.01831 20.9485L4.74245 20.5122C3.58198 18.6739 2.96785 16.5462 2.97108 14.3751C2.97362 8.01664 8.17147 2.84375 14.5631 2.84375C20.9627 2.84632 26.1485 8.01315 26.146 14.3842C26.1433 20.7431 20.9453 25.9167 14.5587 25.9167H14.5542C12.4791 25.9169 10.4421 25.3616 8.65649 24.309Z" fill="#333333"/>
<path fill-rule="evenodd" clip-rule="evenodd" d="M11.0744 8.57384C10.8137 7.99635 10.5387 7.98477 10.2905 7.97492C10.0874 7.96627 9.85501 7.9668 9.62292 7.9668C9.26598 7.97608 8.92916 8.13337 8.69379 8.40068C8.37448 8.74772 7.47443 9.5866 7.47443 11.2928C7.47443 12.999 8.7228 14.6478 8.89687 14.8796C9.07093 15.1114 11.3067 18.724 14.8474 20.1141C17.7899 21.2693 18.3887 21.0395 19.0275 20.9818C19.6662 20.924 21.0883 20.1433 21.3787 19.3332C21.6691 18.5231 21.669 17.8293 21.5819 17.6845C21.4948 17.5397 21.2625 17.4533 20.9141 17.2799C20.5657 17.1064 18.8533 16.2674 18.5339 16.1517C18.2145 16.036 17.9823 15.9783 17.75 16.3255C17.5177 16.6728 16.8506 17.4533 16.6471 17.6845C16.4436 17.9156 16.2406 17.9451 15.8922 17.7717C15.5438 17.5983 14.4217 17.2319 13.091 16.0506C12.0554 15.1314 11.3563 13.9963 11.1531 13.6491C10.9499 13.3019 11.1313 13.1144 11.3061 12.9415C11.4625 12.7862 11.6544 12.5367 11.8286 12.3342C12.0028 12.1317 12.0605 11.9872 12.1767 11.7559C12.2929 11.5247 12.2347 11.3219 12.1476 11.1484C12.0605 10.975 11.3841 9.25959 11.0744 8.57384Z" fill="#333333"/>
</svg>
