<svg width="29" height="28" viewBox="0 0 29 28" fill="none" xmlns="http://www.w3.org/2000/svg">
<path fill-rule="evenodd" clip-rule="evenodd" d="M2.47785 20.8104L0.5 28L7.8908 26.071C9.93486 27.1792 12.2252 27.7598 14.5527 27.76H14.5588C22.2421 27.76 28.4967 21.5348 28.5 13.8851C28.5015 10.2031 27.0333 6.67134 24.4186 4.06722C21.8039 1.4631 18.257 1.7348e-05 14.5585 0C6.87364 0 0.620119 6.22386 0.617044 13.8739C0.614054 16.3087 1.25589 18.7013 2.47785 20.8104ZM8.65651 23.8087L8.23319 23.5589L3.84756 24.7037L5.01833 20.4482L4.74246 20.012C3.58199 18.1737 2.96787 16.046 2.9711 13.8748C2.97364 7.51639 8.17149 2.3435 14.5631 2.3435C20.9627 2.34607 26.1485 7.5129 26.146 13.884C26.1434 20.2429 20.9453 25.4164 14.5588 25.4164H14.5542C12.4791 25.4166 10.4421 24.8613 8.65651 23.8087Z" fill="#979797"/>
<path fill-rule="evenodd" clip-rule="evenodd" d="M11.0744 8.07384C10.8137 7.49635 10.5387 7.48477 10.2905 7.47492C10.0874 7.46627 9.85501 7.4668 9.62292 7.4668C9.26598 7.47608 8.92916 7.63337 8.69379 7.90068C8.37448 8.24772 7.47443 9.0866 7.47443 10.7928C7.47443 12.499 8.7228 14.1478 8.89687 14.3796C9.07093 14.6114 11.3067 18.224 14.8474 19.6141C17.7899 20.7693 18.3887 20.5395 19.0275 20.4818C19.6662 20.424 21.0883 19.6433 21.3787 18.8332C21.6691 18.0231 21.669 17.3293 21.5819 17.1845C21.4948 17.0397 21.2625 16.9533 20.9141 16.7799C20.5657 16.6064 18.8533 15.7674 18.5339 15.6517C18.2145 15.536 17.9823 15.4783 17.75 15.8255C17.5177 16.1728 16.8506 16.9533 16.6471 17.1845C16.4436 17.4156 16.2406 17.4451 15.8922 17.2717C15.5438 17.0983 14.4217 16.7319 13.091 15.5506C12.0554 14.6314 11.3563 13.4963 11.1531 13.1491C10.9499 12.8019 11.1313 12.6144 11.3061 12.4415C11.4625 12.2862 11.6544 12.0367 11.8286 11.8342C12.0028 11.6317 12.0605 11.4872 12.1767 11.2559C12.2929 11.0247 12.2347 10.8219 12.1476 10.6484C12.0605 10.475 11.3841 8.75959 11.0744 8.07384Z" fill="#979797"/>
</svg>
